<?xml version="1.0" encoding="UTF-8" standalone="no"?>
<!-- Created with Inkscape (http://www.inkscape.org/) -->

<svg
   xmlns:dc="http://purl.org/dc/elements/1.1/"
   xmlns:cc="http://creativecommons.org/ns#"
   xmlns:rdf="http://www.w3.org/1999/02/22-rdf-syntax-ns#"
   xmlns:svg="http://www.w3.org/2000/svg"
   xmlns="http://www.w3.org/2000/svg"
   xmlns:sodipodi="http://sodipodi.sourceforge.net/DTD/sodipodi-0.dtd"
   xmlns:inkscape="http://www.inkscape.org/namespaces/inkscape"
   version="1.1"
   id="svg2"
   width="1920"
   height="1080"
   viewBox="0 0 1920 1080"
   sodipodi:docname="1.svg"
   inkscape:version="0.92.4 (5da689c313, 2019-01-14)">
  <metadata
     id="metadata8">
    <rdf:RDF>
      <cc:Work
         rdf:about="">
        <dc:format>image/svg+xml</dc:format>
        <dc:type
           rdf:resource="http://purl.org/dc/dcmitype/StillImage" />
        <dc:title />
      </cc:Work>
    </rdf:RDF>
  </metadata>
  <defs
     id="defs6" />
  <sodipodi:namedview
     pagecolor="#ffffff"
     bordercolor="#666666"
     borderopacity="1"
     objecttolerance="10"
     gridtolerance="10"
     guidetolerance="10"
     inkscape:pageopacity="0"
     inkscape:pageshadow="2"
     inkscape:window-width="1920"
     inkscape:window-height="1020"
     id="namedview4"
     showgrid="false"
     inkscape:zoom="0.21758799"
     inkscape:cx="164.51732"
     inkscape:cy="400.5639"
     inkscape:window-x="0"
     inkscape:window-y="31"
     inkscape:window-maximized="1"
     inkscape:current-layer="svg2" />
  <g
     id="g821"
     transform="translate(0,0.02890376)"
     style="fill:#f8f9fa;fill-opacity:1">
    <path
       style="fill:#f8f9fa;fill-opacity:1"
       d="M 0,587.66667 C 0,173.81282 0.21626492,95.333333 1.3567166,95.333333 c 1.5924729,0 896.7287334,698.156117 898.0143734,700.400877 0.67475,1.17815 -30.65384,33.05342 -139,141.42557 -76.9291,76.94752 -141.17773,140.56512 -142.77473,141.37242 -2.53394,1.2809 -42.03562,1.4678 -310.25,1.4678 H 0 Z M 780.4279,1076.8833 C 779.60677,1075.5547 1851.0592,3.6639845 1855.4036,1.4678204 1857.7695,0.27187131 1864.0207,0 1889.1536,0 H 1920 v 538.39301 c 0,490.02149 -0.1421,538.44759 -1.5818,538.99999 -0.87,0.3339 -257.1184,0.607 -569.441,0.607 -417.04677,0 -568.04245,-0.2966 -568.5493,-1.1167 z m 5.18761,-522.45607 C 685.66174,471.06221 603.6175,402.16679 603.29497,401.32631 c -0.32252,-0.84049 0.0417,-1.92585 0.80931,-2.41192 1.80675,-1.14403 657.93912,-1.17311 659.74412,-0.0293 0.7416,0.46998 1.1916,1.56201 1,2.42672 C 1264.3703,403.46919 970.26564,706 968.64645,706 967.9332,706 885.56927,637.79225 785.61551,554.42723 Z"
       id="path835"
       inkscape:connector-curvature="0" />
  </g>
  <path
     style="fill:#000000"
     d=""
     id="path819"
     inkscape:connector-curvature="0" />
  <path
     style="fill:#000000"
     d=""
     id="path817"
     inkscape:connector-curvature="0" />
  <g
     style="font-style:normal;font-variant:normal;font-weight:normal;font-stretch:normal;font-size:17.5px;line-height:125%;font-family:'Encode Sans';-inkscape-font-specification:'Encode Sans';text-align:center;letter-spacing:3px;word-spacing:0px;text-anchor:middle;fill:#000000;fill-opacity:1;stroke:none;stroke-width:1px;stroke-linecap:butt;stroke-linejoin:miter;stroke-opacity:1"
     transform="matrix(1.8895881,0,0,1.8895881,-1783.581,-714.82237)"
     id="g1059">
    <path
       id="path1011"
       d="m 104.90625,418.17187 c 0,-1.29687 0.44922,-2.39453 1.34375,-3.29296 0.90234,-0.89844 2,-1.35157 3.29688,-1.35157 1.30078,0 2.39843,0.45313 3.29296,1.35157 0.90235,0.89843 1.34766,1.99609 1.34766,3.29296 0,1.29688 -0.44531,2.39454 -1.34766,3.29297 -0.89453,0.90235 -1.99218,1.35157 -3.29296,1.35157 -1.29688,0 -2.39454,-0.44922 -3.29688,-1.35157 -0.89453,-0.89843 -1.34375,-1.99609 -1.34375,-3.29297 z m -19.84375,0 c 0,0.9961 -0.351562,1.84766 -1.046875,2.54688 -0.699219,0.69922 -1.550781,1.04687 -2.546875,1.04687 -1,0 -1.847656,-0.34765 -2.546875,-1.04687 C 78.222656,420.01953 77.875,419.16797 77.875,418.17187 v -25.45703 c 0,-1 0.347656,-1.84765 1.046875,-2.54687 0.699219,-0.69922 1.546875,-1.04688 2.546875,-1.04688 0.5,0 0.949219,0.0977 1.347656,0.30078 0.398438,0.19532 0.796875,0.44532 1.199219,0.7461 3.195313,2.79687 5.953125,4.99219 8.273437,6.58984 2.320313,1.59766 4.441407,2.79688 6.363282,3.59375 1.921876,0.79688 3.730466,1.29688 5.425786,1.4961 1.69921,0.19921 3.52343,0.30078 5.46875,0.30078 1.94921,0 3.7539,-0.0859 5.42968,-0.26172 1.67188,-0.17578 3.44141,-0.66016 5.3125,-1.46094 1.875,-0.80078 3.97266,-1.99609 6.29297,-3.59375 2.32031,-1.59766 5.10547,-3.81641 8.34766,-6.66406 0.84765,-0.69922 1.69922,-1.04688 2.54687,-1.04688 1,0 1.84766,0.34766 2.54688,1.04688 0.69922,0.69922 1.04687,1.54687 1.04687,2.54687 v 25.45703 c 0,0.9961 -0.34765,1.84766 -1.04687,2.54688 -0.69922,0.69922 -1.54688,1.04687 -2.54688,1.04687 -0.99609,0 -1.84375,-0.34765 -2.54687,-1.04687 -0.69532,-0.69922 -1.04688,-1.55078 -1.04688,-2.54688 v -17.74609 c -2.24609,1.79688 -4.40625,3.29688 -6.47656,4.49219 -2.07031,1.19922 -4.09375,2.16015 -6.06641,2.88281 -1.97265,0.72656 -3.92968,1.23438 -5.875,1.53516 -1.94921,0.30078 -3.92187,0.44922 -5.91796,0.44922 -2.14844,0 -4.20313,-0.14844 -6.17579,-0.44922 -1.97265,-0.30078 -3.941402,-0.8086 -5.917965,-1.53516 -1.972656,-0.72266 -3.964844,-1.68359 -5.984375,-2.88281 -2.027344,-1.19531 -4.160156,-2.69531 -6.40625,-4.49219 z m 0,0"
       style="fill:#000000;fill-opacity:1;fill-rule:nonzero;stroke:none"
       inkscape:connector-curvature="0" />
    <path
       id="path1013"
       d="m 175.91406,402.25781 c 1.02735,0 1.90235,0.35938 2.6211,1.08203 0.72656,0.72266 1.08593,1.59766 1.08593,2.62891 0,1.03125 -0.35937,1.90625 -1.08593,2.62891 -0.71875,0.71875 -1.59375,1.07812 -2.6211,1.07812 h -23.1875 c -0.92969,-0.10156 -1.72656,-0.5 -2.39844,-1.19531 -0.66796,-0.69531 -1.0039,-1.53516 -1.0039,-2.51172 0,-1.03125 0.35937,-1.90625 1.08203,-2.62891 0.72656,-0.72265 1.60156,-1.08203 2.62891,-1.08203 z m 18.85547,-5.71875 v 5.71875 h 42.88672 c 0.77344,0 1.45703,-0.26953 2.05078,-0.8125 0.59375,-0.53906 0.89063,-1.22265 0.89063,-2.04687 0,-0.77344 -0.29688,-1.44141 -0.89063,-2.00782 -0.59375,-0.5664 -1.27734,-0.85156 -2.05078,-0.85156 z m 42.58203,-7.41797 c 1.44141,0 2.79297,0.26953 4.05469,0.8125 1.26562,0.53907 2.37109,1.27344 3.32422,2.20313 0.94922,0.92578 1.69531,2.00781 2.24219,3.24219 0.54296,1.23828 0.80859,2.57812 0.80859,4.01953 0,1.44531 -0.26563,2.78125 -0.80859,4.01953 -0.54688,1.23437 -1.29297,2.3164 -2.24219,3.24609 -0.95313,0.92578 -2.0586,1.66016 -3.32422,2.20313 -1.26172,0.53906 -2.61328,0.80859 -4.05469,0.80859 h -42.58203 v 9.42969 c 0,1.03125 -0.375,1.90625 -1.125,2.6289 -0.74609,0.71875 -1.60937,1.08204 -2.58984,1.08204 -1.02735,0 -1.90235,-0.36329 -2.62891,-1.08204 -0.71875,-0.72265 -1.08203,-1.59765 -1.08203,-2.6289 v -26.27344 c 0,-1.03125 0.36328,-1.91016 1.08203,-2.62891 0.72656,-0.72265 1.60156,-1.08203 2.62891,-1.08203 z m 67.85156,20.55469 c 1.39454,0.87891 2.80469,1.81641 4.25,2.82031 1.44141,1.00782 2.91016,2.10157 4.40625,3.28516 0.56641,0.41406 1.05469,0.89062 1.46485,1.42969 0.41406,0.54297 0.62109,1.17187 0.62109,1.89453 0,1.03125 -0.35937,1.90625 -1.08203,2.6289 -0.71875,0.71875 -1.59766,1.08204 -2.62891,1.08204 -0.8789,0 -1.75,-0.36329 -2.6289,-1.08204 -2.10938,-1.54687 -4.27344,-3.03906 -6.48828,-4.48437 -2.21485,-1.44141 -4.51953,-2.73047 -6.91797,-3.86328 -2.39844,-1.13281 -4.87891,-2.03516 -7.46094,-2.70313 -2.57422,-0.67187 -5.25,-1.00781 -8.03125,-1.00781 h -15.38281 c -0.66797,0.10547 -1.23828,0.41406 -1.69922,0.92969 -0.46484,0.51562 -0.69531,1.16015 -0.69531,1.92969 v 6.57031 c 0,1.03125 -0.3711,1.90625 -1.11719,2.6289 -0.75,0.71875 -1.61328,1.08204 -2.58984,1.08204 -1.03516,0 -1.91016,-0.36329 -2.63282,-1.08204 -0.71875,-0.72265 -1.07812,-1.59765 -1.07812,-2.6289 v -7.41797 c 0,-1.28906 0.24609,-2.51172 0.73437,-3.67188 0.48828,-1.16015 1.14453,-2.16406 1.97266,-3.01171 0.82031,-0.85157 1.80078,-1.52344 2.93359,-2.01172 1.13282,-0.48828 2.3711,-0.73438 3.71094,-0.73438 h 40.95703 c 0.77735,0 1.45703,-0.26953 2.05078,-0.8125 0.58985,-0.53906 0.88672,-1.22265 0.88672,-2.04687 0,-0.77344 -0.29687,-1.44141 -0.88672,-2.00782 -0.59375,-0.5664 -1.27343,-0.85156 -2.05078,-0.85156 h -46.59765 c -1.03516,0 -1.91016,-0.35937 -2.63282,-1.08203 -0.71875,-0.72266 -1.07812,-1.59766 -1.07812,-2.625 0,-1.03125 0.35937,-1.91016 1.07812,-2.62891 0.72266,-0.72265 1.59766,-1.08203 2.63282,-1.08203 h 46.29296 c 1.4375,0 2.79297,0.26953 4.05469,0.8125 1.26172,0.53907 2.36719,1.27344 3.32422,2.20313 0.94922,0.92578 1.69922,2.00781 2.24219,3.24219 0.53515,1.23828 0.80859,2.57812 0.80859,4.01953 0,1.44531 -0.27344,2.78125 -0.80859,4.01953 -0.54297,1.23437 -1.29297,2.3164 -2.24219,3.24609 -0.95703,0.92578 -2.0625,1.66016 -3.32422,2.20313 -1.26172,0.53906 -2.61719,0.80859 -4.05469,0.80859 z m 65.53125,5.71875 c 1.75782,0 3.19532,-0.32031 4.33204,-0.96484 1.13281,-0.64453 2.01953,-1.42969 2.66406,-2.35547 0.64453,-0.92969 1.08203,-1.94531 1.3164,-3.05469 0.23047,-1.10937 0.34766,-2.12109 0.34766,-3.05078 0,-0.92578 -0.11719,-1.94531 -0.34766,-3.05469 -0.23437,-1.10547 -0.67187,-2.125 -1.3164,-3.05078 -0.64453,-0.92969 -1.53125,-1.71484 -2.66406,-2.35937 -1.13672,-0.64063 -2.57422,-0.96485 -4.33204,-0.96485 h -31.21875 c -1.80078,0 -3.26171,0.32422 -4.36718,0.96485 -1.10938,0.64453 -1.98047,1.42968 -2.625,2.35937 -0.64453,0.92578 -1.08203,1.94531 -1.31641,3.05078 -0.23047,1.10938 -0.34766,2.12891 -0.34766,3.05469 0,0.92969 0.11719,1.94141 0.34766,3.05078 0.23438,1.10938 0.67188,2.125 1.31641,3.05469 0.64453,0.92578 1.51562,1.71094 2.625,2.35547 1.10547,0.64453 2.5664,0.96484 4.36718,0.96484 z m 15.84766,-9.42578 c 0,1.95703 -0.32422,3.92969 -0.96875,5.91016 -0.64453,1.98437 -1.58594,3.78906 -2.82031,5.41015 -1.23828,1.625 -2.73047,2.94922 -4.48047,3.98047 -1.75,1.03125 -3.73828,1.54688 -5.94922,1.54688 h -35.24609 c -2.10938,-0.10547 -3.98828,-0.6836 -5.64063,-1.73829 -1.64453,-1.05859 -3.05078,-2.38281 -4.21094,-3.98437 -1.16015,-1.59375 -2.04687,-3.37109 -2.66406,-5.32813 -0.61719,-1.96093 -0.93359,-3.89062 -0.93359,-5.79687 0,-1.96094 0.32812,-3.92969 0.97265,-5.91016 0.64063,-1.98828 1.58204,-3.78906 2.82032,-5.41015 1.23437,-1.625 2.73047,-2.95313 4.48047,-3.98047 1.75,-1.03516 3.73437,-1.54688 5.94921,-1.54688 h 35.24219 c 2.11328,0.10157 3.99219,0.6836 5.64063,1.73828 1.65234,1.05469 3.05468,2.38282 4.21484,3.98047 1.15625,1.59766 2.04688,3.375 2.66406,5.33203 0.61719,1.96094 0.92969,3.89063 0.92969,5.79688 z m 54.86719,9.42578 c 1.7539,0 3.19531,-0.32031 4.32812,-0.96484 1.13672,-0.64453 2.02344,-1.42969 2.66797,-2.35547 0.64453,-0.92969 1.08203,-1.94531 1.3125,-3.05469 0.23438,-1.10937 0.34766,-2.12109 0.34766,-3.05078 0,-0.92578 -0.11328,-1.94531 -0.34766,-3.05469 -0.23047,-1.10547 -0.66797,-2.125 -1.3125,-3.05078 -0.64453,-0.92969 -1.53125,-1.71484 -2.66797,-2.35937 -1.13281,-0.64063 -2.57422,-0.96485 -4.32812,-0.96485 h -43.42969 c -1.03516,0 -1.90625,-0.35937 -2.62891,-1.08203 -0.72265,-0.72266 -1.08593,-1.59766 -1.08593,-2.625 0,-1.03125 0.36328,-1.91016 1.08593,-2.62891 0.72266,-0.72265 1.59375,-1.08203 2.62891,-1.08203 h 45.05469 c 2.21484,0 4.19922,0.51172 5.95312,1.54688 1.75,1.02734 3.2461,2.35547 4.47657,3.98047 1.23828,1.62109 2.17968,3.42187 2.82421,5.41015 0.64063,1.98047 0.96485,3.94922 0.96485,5.91016 0,1.90625 -0.3086,3.83594 -0.92969,5.79687 -0.61719,1.95704 -1.50391,3.73438 -2.66016,5.32813 -1.16406,1.60156 -2.5664,2.92578 -4.21484,3.98437 -1.65234,1.05469 -3.52734,1.63282 -5.64062,1.73829 h -45.82813 c -1.03516,0 -1.90625,-0.36329 -2.62891,-1.08204 -0.72265,-0.72265 -1.08593,-1.59765 -1.08593,-2.6289 v -13.13672 c 0,-1.03125 0.36328,-1.90625 1.08593,-2.62891 0.72266,-0.72265 1.59375,-1.08203 2.62891,-1.08203 1.03125,0 1.90625,0.35938 2.625,1.08203 0.72266,0.72266 1.08203,1.59766 1.08203,2.62891 v 9.42578 z m 30.99219,-9.42578 c 0,0.92969 0.11718,1.94141 0.34765,3.05078 0.23047,1.10938 0.66797,2.125 1.3125,3.05469 0.64453,0.92578 1.51953,1.71094 2.625,2.35547 1.10938,0.64453 2.56641,0.96484 4.3711,0.96484 h 30.75781 c 1.74609,0 3.19531,-0.32031 4.32812,-0.96484 1.12891,-0.64453 2.01953,-1.42969 2.66407,-2.35547 0.64453,-0.92969 1.08203,-1.94531 1.3125,-3.05469 0.23437,-1.10937 0.35156,-2.12109 0.35156,-3.05078 v -13.0625 c 0,-1.02734 0.35547,-1.90625 1.08203,-2.625 0.71875,-0.72266 1.59766,-1.08594 2.625,-1.08594 1.03125,0 1.90625,0.36328 2.625,1.08594 0.72266,0.71875 1.08203,1.59766 1.08203,2.625 v 13.0625 c 0,1.95703 -0.31641,3.92969 -0.96484,5.91016 -0.64453,1.98437 -1.58203,3.78906 -2.82032,5.41015 -1.23828,1.625 -2.73046,2.94922 -4.48437,3.98047 -1.74609,1.03125 -3.73047,1.54688 -5.94531,1.54688 h -35.2461 c -2.10937,-0.10547 -3.98828,-0.6836 -5.63672,-1.73829 -1.65234,-1.05859 -3.05468,-2.38281 -4.21093,-3.98437 -1.16407,-1.59375 -2.04688,-3.37109 -2.66797,-5.32813 -0.61719,-1.96093 -0.92969,-3.89062 -0.92969,-5.79687 v -13.0625 c 0,-1.02734 0.35938,-1.90625 1.08203,-2.625 0.72266,-0.72266 1.59766,-1.08594 2.62891,-1.08594 1.03125,0 1.90625,0.36328 2.6289,1.08594 0.72266,0.71875 1.08204,1.59766 1.08204,2.625 z m 63.21875,0 c 0,-1.96094 0.3164,-3.92969 0.96484,-5.91016 0.64453,-1.98828 1.58203,-3.78906 2.81641,-5.41015 1.23828,-1.625 2.73437,-2.95313 4.48828,-3.98047 1.75,-1.03516 3.73437,-1.54688 5.94531,-1.54688 h 45.05469 c 1.03125,0 1.91015,0.35938 2.6289,1.08203 0.72266,0.71875 1.08203,1.59766 1.08203,2.62891 0,1.02734 -0.35937,1.90234 -1.08203,2.625 -0.71875,0.72266 -1.59765,1.08203 -2.6289,1.08203 H 551.5 c -1.80469,0 -3.25781,0.32422 -4.36719,0.96485 -1.10547,0.64453 -1.98437,1.42968 -2.6289,2.35937 -0.64063,0.92578 -1.08204,1.94531 -1.3125,3.05078 -0.23047,1.10938 -0.34375,2.12891 -0.34375,3.05469 0,0.92969 0.11328,1.94141 0.34375,3.05078 0.23046,1.10938 0.67187,2.125 1.3125,3.05469 0.64453,0.92578 1.52343,1.71094 2.6289,2.35547 1.10938,0.64453 2.5625,0.96484 4.36719,0.96484 h 43.42969 c 1.03125,0 1.91015,0.36328 2.6289,1.08203 0.72266,0.72266 1.08203,1.59766 1.08203,2.62891 0,1.03125 -0.35937,1.90625 -1.08203,2.6289 -0.71875,0.71875 -1.59765,1.08204 -2.6289,1.08204 h -45.82422 c -2.11328,0 -3.9961,-0.51563 -5.64063,-1.54688 -1.65234,-1.03125 -3.05468,-2.35547 -4.21484,-3.98047 -1.15625,-1.62109 -2.05078,-3.4375 -2.66797,-5.44531 -0.61719,-2.01172 -0.92187,-3.96875 -0.92187,-5.875 z M 663.25,389.12109 c 1.03125,0 1.90234,0.35938 2.625,1.08203 0.72656,0.71875 1.08594,1.59766 1.08594,2.62891 0,1.02734 -0.35938,1.90234 -1.08594,2.625 -0.72266,0.72266 -1.59375,1.08203 -2.625,1.08203 h -22.87891 v 22.56641 c 0,1.03125 -0.35937,1.90625 -1.07812,2.6289 -0.71875,0.71875 -1.59766,1.08204 -2.62891,1.08204 -1.02734,0 -1.90625,-0.36329 -2.625,-1.08204 -0.72265,-0.72265 -1.08594,-1.59765 -1.08594,-2.6289 v -22.56641 h -23.18359 c -0.92578,-0.10156 -1.72656,-0.5039 -2.39453,-1.19922 -0.67188,-0.6914 -1.00391,-1.53125 -1.00391,-2.50781 0,-1.03125 0.35938,-1.91016 1.08203,-2.62891 0.71875,-0.72265 1.59766,-1.08203 2.625,-1.08203 z m 18.85547,29.98438 c 0,1.03125 -0.35938,1.90625 -1.08203,2.6289 -0.71875,0.71875 -1.59375,1.08204 -2.62891,1.08204 -1.03125,0 -1.90234,-0.36329 -2.62109,-1.08204 -0.72657,-0.72265 -1.08985,-1.59765 -1.08985,-2.6289 v -26.27344 c 0,-1.03125 0.36328,-1.91016 1.08985,-2.62891 0.71875,-0.72265 1.58984,-1.08203 2.62109,-1.08203 1.03516,0 1.91016,0.35938 2.62891,1.08203 0.72265,0.71875 1.08203,1.59766 1.08203,2.62891 z m 54.79297,-3.71094 c 1.7539,0 3.19531,-0.32031 4.32812,-0.96484 1.13672,-0.64453 2.02344,-1.42969 2.66406,-2.35547 0.64454,-0.92969 1.08594,-1.94531 1.32032,-3.05469 0.23047,-1.10937 0.34765,-2.12109 0.34765,-3.05078 0,-0.92578 -0.11718,-1.94531 -0.34765,-3.05469 -0.23438,-1.10547 -0.67578,-2.125 -1.32032,-3.05078 -0.64062,-0.92969 -1.52734,-1.71484 -2.66406,-2.35937 -1.13281,-0.64063 -2.57422,-0.96485 -4.32812,-0.96485 h -31.22266 c -1.80078,0 -3.25781,0.32422 -4.36719,0.96485 -1.10156,0.64453 -1.98047,1.42968 -2.62109,2.35937 -0.64844,0.92578 -1.08984,1.94531 -1.32031,3.05078 -0.23047,1.10938 -0.34375,2.12891 -0.34375,3.05469 0,0.92969 0.11328,1.94141 0.34375,3.05078 0.23047,1.10938 0.67187,2.125 1.32031,3.05469 0.64062,0.92578 1.51953,1.71094 2.62109,2.35547 1.10938,0.64453 2.56641,0.96484 4.36719,0.96484 z m 15.84375,-9.42578 c 0,1.95703 -0.32422,3.92969 -0.96485,5.91016 -0.64453,1.98437 -1.58593,3.78906 -2.82031,5.41015 -1.23828,1.625 -2.73437,2.94922 -4.48047,3.98047 -1.7539,1.03125 -3.73828,1.54688 -5.95312,1.54688 h -35.24219 c -2.10938,-0.10547 -3.99219,-0.6836 -5.64063,-1.73829 -1.64843,-1.05859 -3.05078,-2.38281 -4.21484,-3.98437 -1.15625,-1.59375 -2.04297,-3.37109 -2.66406,-5.32813 -0.61719,-1.96093 -0.92969,-3.89062 -0.92969,-5.79687 0,-1.96094 0.32813,-3.92969 0.97266,-5.91016 0.63672,-1.98828 1.58203,-3.78906 2.82031,-5.41015 1.23437,-1.625 2.72656,-2.95313 4.48047,-3.98047 1.75,-1.03516 3.73047,-1.54688 5.94922,-1.54688 h 35.24218 c 2.11329,0.10157 3.99219,0.6836 5.64063,1.73828 1.64844,1.05469 3.05078,2.38282 4.21094,3.98047 1.16015,1.59766 2.04687,3.375 2.66406,5.33203 0.61719,1.96094 0.92969,3.89063 0.92969,5.79688 z m 60.35937,-13.13672 c 0,-1.03125 0.36328,-1.91016 1.08203,-2.62891 0.71875,-0.72265 1.59766,-1.08203 2.62891,-1.08203 1.02734,0 1.90234,0.35938 2.625,1.08203 0.71875,0.71875 1.08203,1.59766 1.08203,2.62891 v 22.48828 c 0,2.10938 -0.71094,3.89063 -2.125,5.33203 -1.41797,1.44141 -3.17969,2.16407 -5.29297,2.16407 -0.72656,0 -1.42969,-0.10547 -2.125,-0.3125 -0.69922,-0.20313 -1.32812,-0.48829 -1.89453,-0.84766 L 773.6875,400.01562 c -0.98047,-0.5664 -1.78906,-1.01562 -2.4375,-1.35156 -0.64453,-0.33203 -1.17188,-0.5039 -1.58203,-0.5039 -0.77344,0 -1.26172,0.49218 -1.46875,1.47265 -0.20703,0.97656 -0.3125,2.39453 -0.3125,4.25 v 15.22266 c 0,1.03125 -0.35547,1.90625 -1.07813,2.6289 -0.71875,0.71875 -1.59765,1.08204 -2.6289,1.08204 -1.03125,0 -1.90625,-0.36329 -2.62891,-1.08204 -0.71875,-0.72265 -1.08203,-1.59765 -1.08203,-2.6289 v -22.48828 c 0,-2.11328 0.71094,-3.89063 2.12891,-5.33203 1.41406,-1.44532 3.17968,-2.16407 5.28906,-2.16407 0.72656,0 1.4375,0.10157 2.1289,0.3086 0.69532,0.20312 1.32422,0.48828 1.89063,0.85156 l 35.39844,21.63672 c 0.98047,0.5664 1.78906,1.01953 2.43359,1.35547 0.64453,0.33203 1.17188,0.5 1.58203,0.5 0.77344,0 1.26563,-0.48828 1.46875,-1.46875 0.20703,-0.97657 0.3125,-2.39453 0.3125,-4.25 z m 0,0"
       style="fill:#000000;fill-opacity:1;fill-rule:nonzero;stroke:none"
       inkscape:connector-curvature="0" />
    <path
       id="path1015"
       d="m 87.265625,450.92578 h 3.074219 l 9.835936,25.72656 h -5.218749 l -6.160156,-17.5664 -6.152344,17.5664 h -5.214843 z m -5.117187,16.93359 h 13.535156 v 4.66797 H 82.148438 Z m 62.097652,-5.58984 v 5.01953 c 0,1.91797 -0.38672,3.59375 -1.16015,5.0586 -0.77344,1.45312 -1.86719,2.57812 -3.27735,3.375 -1.42187,0.79296 -3.05468,1.19531 -4.92187,1.19531 -1.8711,0 -3.52735,-0.375 -4.96485,-1.125 -1.42968,-0.7461 -2.53515,-1.80469 -3.32031,-3.17578 -0.78515,-1.3711 -1.17968,-2.95313 -1.17968,-4.75782 v -7.58984 c 0,-1.91016 0.39062,-3.59375 1.16406,-5.04297 0.76953,-1.44922 1.86328,-2.57031 3.27734,-3.36719 1.41797,-0.79687 3.05469,-1.19921 4.92188,-1.19921 1.53125,0 2.94531,0.32031 4.24218,0.94921 1.30078,0.63672 2.38282,1.52344 3.2461,2.67969 0.86718,1.15625 1.45312,2.4961 1.76172,4.01953 h -5.23438 c -0.17969,-0.54687 -0.47266,-1.01562 -0.87891,-1.41015 -0.41015,-0.39063 -0.88671,-0.69532 -1.4375,-0.89844 -0.53906,-0.21094 -1.11718,-0.3125 -1.69921,-0.3125 -0.86329,0 -1.61719,0.19141 -2.27735,0.56641 -0.65234,0.38281 -1.16015,0.91015 -1.52344,1.61328 -0.35546,0.69531 -0.53515,1.49609 -0.53515,2.40234 v 7.58984 c 0,0.80469 0.17969,1.51172 0.54687,2.11719 0.36328,0.61719 0.88282,1.08985 1.5586,1.42188 0.67187,0.33203 1.45312,0.49218 2.33203,0.49218 0.875,0 1.63672,-0.17968 2.29297,-0.53515 0.65234,-0.36328 1.16015,-0.88281 1.51172,-1.57031 0.35546,-0.6836 0.53125,-1.49219 0.53125,-2.42188 v -0.42187 h -3.89454 v -4.67188 z m 27.72657,-11.34375 h 4.83984 v 25.72656 h -4.83984 z m 1.75,21.05859 h 15.47265 v 4.66797 h -15.47265 z m 0,-10.4414 H 187.25 v 4.66797 h -13.52734 z m 0,-10.61719 h 15.47265 v 4.67578 h -15.47265 z m 42.49218,0 h 5.92578 l 9.56641,19.71094 -0.41797,0.45703 v -20.16797 h 4.62891 v 25.70703 h -5.96094 l -9.53125,-19.40625 0.42188,-0.45703 v 19.86328 h -4.63282 z m 56.73438,25.99219 c -1.95703,0 -3.63281,-0.375 -5.02344,-1.125 -1.39453,-0.7461 -2.45312,-1.83985 -3.18359,-3.27344 -0.73438,-1.42969 -1.09766,-3.16016 -1.09766,-5.19141 v -7.05859 c 0,-2.02734 0.36328,-3.75391 1.09766,-5.19141 0.73047,-1.43359 1.78906,-2.52734 3.18359,-3.28125 1.39063,-0.7539 3.06641,-1.13671 5.02344,-1.13671 1.60937,0 3.0625,0.35156 4.33594,1.04687 1.27343,0.69531 2.32421,1.70703 3.15625,3.03906 0.82812,1.32032 1.40625,2.92188 1.72265,4.80078 h -5.02734 c -0.1836,-0.85156 -0.47266,-1.57812 -0.875,-2.17578 -0.39063,-0.60156 -0.86719,-1.0625 -1.42969,-1.38281 -0.5625,-0.32031 -1.1875,-0.47656 -1.88281,-0.47656 -0.91016,0 -1.67969,0.1875 -2.32031,0.55469 -0.63282,0.375 -1.1211,0.91796 -1.46094,1.63281 -0.33203,0.71094 -0.5,1.5664 -0.5,2.57031 v 7.05859 c 0,1.00391 0.16797,1.85938 0.5,2.56641 0.33984,0.70703 0.82812,1.24219 1.46094,1.61719 0.64062,0.36719 1.41015,0.55469 2.32031,0.55469 0.70703,0 1.34765,-0.15625 1.91015,-0.46485 0.5625,-0.3125 1.04297,-0.77344 1.4336,-1.36719 0.38672,-0.60546 0.67187,-1.33593 0.84375,-2.19921 h 5.02734 c -0.32812,1.875 -0.91015,3.47656 -1.73828,4.80468 -0.83594,1.32422 -1.88281,2.33594 -3.15234,3.03125 -1.26953,0.69532 -2.71485,1.04688 -4.32422,1.04688 z m 40.67187,0 c -1.58203,0 -2.99218,-0.3086 -4.22265,-0.91797 -1.23047,-0.61719 -2.1836,-1.48828 -2.8711,-2.60547 l 3.96485,-2.88281 c 0.42187,0.54297 0.92968,0.96484 1.52734,1.2539 0.59766,0.29688 1.21875,0.44922 1.86719,0.44922 0.92969,0 1.64844,-0.33593 2.15234,-0.98437 0.51172,-0.65235 0.76172,-1.57813 0.76172,-2.76563 v -17.53906 h 5.02344 v 17.55078 c 0,1.78125 -0.32031,3.30078 -0.96094,4.5625 -0.64453,1.26172 -1.57422,2.23047 -2.80859,2.88672 -1.22266,0.66016 -2.70313,0.99219 -4.4336,0.99219 z m 43.82422,-25.99219 h 3.07422 l 9.83594,25.72656 h -5.21875 l -6.16016,-17.5664 -6.15234,17.5664 h -5.21485 z m -5.11719,16.93359 h 13.53516 v 4.66797 h -13.53516 z m 74.51954,-6.22656 h 8.95312 c 0.49609,0 0.92969,-0.125 1.30469,-0.37109 0.3789,-0.25 0.66797,-0.60156 0.875,-1.0625 0.21094,-0.46094 0.32031,-0.99219 0.33203,-1.58985 0,-0.60546 -0.10938,-1.13671 -0.3125,-1.59375 -0.20703,-0.46093 -0.5,-0.8164 -0.875,-1.0625 -0.37891,-0.24609 -0.82422,-0.37109 -1.32422,-0.37109 h -8.95312 v -4.67187 h 9.33984 c 1.41016,0 2.65625,0.32031 3.73047,0.95312 1.07422,0.64063 1.91015,1.53906 2.49609,2.69922 0.58985,1.16797 0.88672,2.51172 0.88672,4.04687 0,1.53516 -0.29687,2.87891 -0.88672,4.03907 -0.58594,1.16406 -1.42578,2.05859 -2.5,2.69922 -1.08203,0.63281 -2.32812,0.95312 -3.72656,0.95312 h -9.33984 z m -1.92969,-10.72265 h 4.84375 v 25.74218 h -4.84375 z m 7.34375,14.59375 5.17969,-0.8086 6.93359,11.95703 h -5.87109 z m 38.86719,-14.57813 h 4.83984 v 25.72656 h -4.83984 z m 1.75,21.05859 h 15.47656 v 4.66797 h -15.47656 z m 0,-10.4414 h 13.53125 v 4.66797 h -13.53125 z m 0,-10.61719 h 15.47656 v 4.67578 h -15.47656 z m 45.41015,15.67969 10.3125,-15.67969 h 6.10547 l -15.79297,21.97656 z M 515.375,450.92578 h 4.83984 v 25.72656 H 515.375 Z m 7.19922,12.70703 4.17578,-2.64062 9.03906,15.66015 h -5.7539 z m 38.64062,-12.70703 h 4.84375 v 25.72656 h -4.84375 z m 2.15625,21.05859 h 15.07032 v 4.66797 h -15.07032 z m 48.5625,-21.05859 h 3.07422 l 9.83594,25.72656 H 619.625 l -6.15625,-17.5664 -6.15234,17.5664 h -5.21875 z m -5.11718,16.93359 h 13.53515 v 4.66797 h -13.53515 z m 59.99218,-16.93359 h 6.38672 v 25.72656 h -4.40234 v -19.97656 l 0.17578,1.13672 -4.92188,15.96875 h -4.28125 l -4.91406,-15.62109 0.17578,-1.48438 v 19.97656 H 650.625 v -25.72656 h 6.38281 l 4.90235,17.33594 z m 43.50782,25.99219 c -1.86329,0 -3.50782,-0.39453 -4.92579,-1.17969 -1.42578,-0.78516 -2.52343,-1.89062 -3.30468,-3.32422 -0.77735,-1.43359 -1.16407,-3.09375 -1.16407,-4.97656 v -7.28906 c 0,-1.89063 0.38672,-3.55078 1.16407,-4.98047 0.78125,-1.4336 1.8789,-2.54297 3.30468,-3.32813 1.41797,-0.78515 3.0625,-1.17968 4.92579,-1.17968 1.85937,0 3.5039,0.39453 4.92187,1.17968 1.42578,0.78516 2.52344,1.89453 3.30469,3.32813 0.77734,1.42969 1.16406,3.08984 1.16406,4.98047 v 7.28906 c 0,1.88281 -0.38672,3.54297 -1.16406,4.97656 -0.78125,1.4336 -1.87891,2.53906 -3.30469,3.32422 -1.41797,0.78516 -3.0625,1.17969 -4.92187,1.17969 z m 0,-4.85156 c 0.87109,0 1.63671,-0.1875 2.29296,-0.55469 0.66797,-0.375 1.17579,-0.89844 1.53516,-1.58203 0.35547,-0.6875 0.53906,-1.47266 0.53906,-2.3711 v -7.53906 c 0,-0.89062 -0.18359,-1.68359 -0.53906,-2.36328 -0.35937,-0.69141 -0.86719,-1.21484 -1.53516,-1.58984 -0.65625,-0.36719 -1.42187,-0.55469 -2.29296,-0.55469 -0.875,0 -1.64063,0.1875 -2.30079,0.55469 -0.66406,0.375 -1.17187,0.89843 -1.53125,1.58984 -0.35937,0.67969 -0.53906,1.47266 -0.53906,2.36328 v 7.53906 c 0,0.89844 0.17969,1.6836 0.53906,2.3711 0.35938,0.68359 0.86719,1.20703 1.53125,1.58203 0.66016,0.36719 1.42579,0.55469 2.30079,0.55469 z m 47.67578,-21.14063 h 3.88672 l 4.92578,17.16016 3.30468,-17.16016 h 4.98829 l -5.92969,25.72656 h -4.5625 l -4.5586,-17.97656 -4.77734,17.97656 h -4.56641 l -5.92578,-25.72656 h 4.98438 l 3.30859,17.16016 z m 50.0664,0 h 3.07422 l 9.83594,25.72656 h -5.21484 l -6.16016,-17.5664 -6.15234,17.5664 h -5.21875 z m -5.11328,16.93359 h 13.53125 v 4.66797 h -13.53125 z m 0,0"
       style="fill:#000000;fill-opacity:1;fill-rule:nonzero;stroke:none"
       inkscape:connector-curvature="0" />
  </g>
  <g
     style="font-style:normal;font-variant:normal;font-weight:normal;font-stretch:normal;font-size:17.5px;line-height:125%;font-family:'Encode Sans';-inkscape-font-specification:'Encode Sans';text-align:center;letter-spacing:3px;word-spacing:0px;text-anchor:middle;fill:#ffffff;fill-opacity:1;stroke:none;stroke-width:1px;stroke-linecap:butt;stroke-linejoin:miter;stroke-opacity:1"
     transform="matrix(3.8002734,0,0,3.8002734,-14.578687,-175.11449)"
     id="g1054">
    <path
       id="path1021"
       d="m 449.19922,172.87109 c 45.1875,0 81.82031,36.63282 81.82031,81.82032 0,45.1875 -36.63281,81.82031 -81.82031,81.82031 -45.1875,0 -81.82031,-36.63281 -81.82031,-81.82031 0,-45.1875 36.63281,-81.82032 81.82031,-81.82032 z m 0,-8.34765 c 49.79687,0 90.16797,40.37109 90.16797,90.16797 0,49.79687 -40.3711,90.16796 -90.16797,90.16796 -49.79688,0 -90.16797,-40.37109 -90.16797,-90.16796 0,-49.79688 40.37109,-90.16797 90.16797,-90.16797"
       style="fill:#ffffff;fill-opacity:1;fill-rule:evenodd;stroke:none"
       inkscape:connector-curvature="0" />
    <path
       style="fill:#ffffff;fill-opacity:1;fill-rule:evenodd;stroke:none;stroke-width:1.761482px"
       d="m -1855.4883,-21.720703 c -69.0969,0 -125.1269,56.036943 -125.1269,125.126953 0,69.08999 56.03,125.12695 125.1269,125.12695 69.09,0 125.127,-56.03696 125.127,-125.12695 0,-69.09001 -56.037,-125.126953 -125.127,-125.126953 z m -85.6797,73.582031 c 1.5345,0 2.9042,0.311449 4.1289,0.923828 1.2248,0.60551 2.4423,1.368986 3.6602,2.291016 9.7776,8.545935 18.2135,15.266979 25.3144,20.152344 7.101,4.885364 13.5965,8.553411 19.4727,10.996093 5.8762,2.442683 11.4144,3.969652 16.6094,4.582032 5.195,0.605509 10.7628,0.916015 16.7285,0.916015 5.9519,0 11.4833,-0.267981 16.5957,-0.804687 5.1193,-0.529819 10.5408,-2.02319 16.2656,-4.458985 5.7386,-2.449552 12.1451,-6.110729 19.2461,-10.996093 7.101,-4.892235 15.6121,-11.682532 25.541,-20.386719 2.5941,-2.146806 5.1881,-3.214844 7.7891,-3.214844 3.0551,0 5.656,1.068038 7.7891,3.214844 2.133,2.133031 3.207,4.733076 3.207,7.78125 v 77.890628 c 0,3.05508 -1.074,5.65017 -3.207,7.7832 -2.1331,2.14681 -4.734,3.21289 -7.7891,3.21289 -3.0551,0 -5.6491,-1.06608 -7.7891,-3.21289 -2.133,-2.13303 -3.207,-4.72812 -3.207,-7.7832 V 86.458984 c -6.8739,5.490874 -13.4783,10.072776 -19.8086,13.740236 -6.3441,3.66746 -12.53,6.60664 -18.5644,8.82226 -6.0276,2.20873 -12.0207,3.77627 -17.9864,4.69141 -5.9519,0.91514 -11.9788,1.37695 -18.082,1.37695 -6.5712,0 -12.8679,-0.46181 -18.9023,-1.37695 -6.0345,-0.91514 -12.0622,-2.48268 -18.1036,-4.69141 -6.0344,-2.21562 -12.1384,-5.1548 -18.3242,-8.82226 -6.1789,-3.66746 -12.7071,-8.249362 -19.5879,-13.740236 v 54.289066 c 0,3.05508 -1.0671,5.65017 -3.207,7.7832 -2.1331,2.14681 -4.734,3.21289 -7.7891,3.21289 -3.055,0 -5.6422,-1.06608 -7.789,-3.21289 -2.1331,-2.13303 -3.1992,-4.72812 -3.1992,-7.7832 V 62.857422 c 0,-3.048174 1.0661,-5.648219 3.1992,-7.78125 2.1468,-2.146806 4.734,-3.214844 7.789,-3.214844 z m 85.9141,74.685552 c 3.9633,0 7.3199,1.36877 10.0723,4.12109 2.7454,2.74543 4.1211,6.10987 4.1211,10.08008 0,3.97022 -1.3757,7.32879 -4.1211,10.07422 -2.7524,2.75231 -6.109,4.1289 -10.0723,4.1289 -3.9771,0 -7.3356,-1.37659 -10.0879,-4.1289 -2.7523,-2.74543 -4.1211,-6.104 -4.1211,-10.07422 0,-3.97021 1.3688,-7.33465 4.1211,-10.08008 2.7523,-2.75232 6.1108,-4.12109 10.0879,-4.12109 z"
       transform="matrix(0.56770379,0,0,0.56770379,1502.5672,195.98731)"
       id="path1025"
       inkscape:connector-curvature="0" />
  </g>
</svg>
