<?xml version="1.0" encoding="UTF-8" standalone="no"?>
<!-- Created with Inkscape (http://www.inkscape.org/) -->

<svg
   xmlns:dc="http://purl.org/dc/elements/1.1/"
   xmlns:cc="http://creativecommons.org/ns#"
   xmlns:rdf="http://www.w3.org/1999/02/22-rdf-syntax-ns#"
   xmlns:svg="http://www.w3.org/2000/svg"
   xmlns="http://www.w3.org/2000/svg"
   xmlns:sodipodi="http://sodipodi.sourceforge.net/DTD/sodipodi-0.dtd"
   xmlns:inkscape="http://www.inkscape.org/namespaces/inkscape"
   version="1.1"
   id="svg2"
   width="1920"
   height="1080"
   viewBox="0 0 1920 1080"
   sodipodi:docname="2.svg"
   inkscape:version="0.92.4 (5da689c313, 2019-01-14)">
  <metadata
     id="metadata8">
    <rdf:RDF>
      <cc:Work
         rdf:about="">
        <dc:format>image/svg+xml</dc:format>
        <dc:type
           rdf:resource="http://purl.org/dc/dcmitype/StillImage" />
        <dc:title></dc:title>
      </cc:Work>
    </rdf:RDF>
  </metadata>
  <defs
     id="defs6" />
  <sodipodi:namedview
     pagecolor="#ffffff"
     bordercolor="#666666"
     borderopacity="1"
     objecttolerance="10"
     gridtolerance="10"
     guidetolerance="10"
     inkscape:pageopacity="0"
     inkscape:pageshadow="2"
     inkscape:window-width="1920"
     inkscape:window-height="1020"
     id="namedview4"
     showgrid="false"
     inkscape:zoom="0.21758799"
     inkscape:cx="-596.09451"
     inkscape:cy="393.67014"
     inkscape:window-x="0"
     inkscape:window-y="31"
     inkscape:window-maximized="1"
     inkscape:current-layer="svg2"
     borderlayer="true" />
  <rect
     style="opacity:1;fill:#f8f9fa;fill-opacity:1;stroke:none;stroke-width:5.1323657;stroke-miterlimit:4;stroke-dasharray:none;stroke-opacity:1"
     id="rect825"
     width="1920"
     height="1080"
     x="0"
     y="0" />
  <path
     style="fill:#000000"
     d=""
     id="path819"
     inkscape:connector-curvature="0" />
  <path
     style="fill:#000000"
     d=""
     id="path817"
     inkscape:connector-curvature="0" />
  <g
     style="font-style:normal;font-variant:normal;font-weight:normal;font-stretch:normal;font-size:17.5px;line-height:125%;font-family:'Encode Sans';-inkscape-font-specification:'Encode Sans';text-align:center;letter-spacing:3px;word-spacing:0px;text-anchor:middle;fill:#ffffff;fill-opacity:1;stroke:none;stroke-width:1px;stroke-linecap:butt;stroke-linejoin:miter;stroke-opacity:1"
     transform="matrix(4.0483851,-2.34355,2.4220432,3.9171857,-880.77911,213.60357)"
     id="g1054">
    <path
       id="path1021"
       d="m 449.19922,172.87109 c 45.1875,0 81.82031,36.63282 81.82031,81.82032 0,45.1875 -36.63281,81.82031 -81.82031,81.82031 -45.1875,0 -81.82031,-36.63281 -81.82031,-81.82031 0,-45.1875 36.63281,-81.82032 81.82031,-81.82032 z m 0,-8.34765 c 49.79687,0 90.16797,40.37109 90.16797,90.16797 0,49.79687 -40.3711,90.16796 -90.16797,90.16796 -49.79688,0 -90.16797,-40.37109 -90.16797,-90.16796 0,-49.79688 40.37109,-90.16797 90.16797,-90.16797"
       style="fill:#ffffff;fill-opacity:1;fill-rule:evenodd;stroke:none"
       inkscape:connector-curvature="0" />
    <path
       style="fill:#ffffff;fill-opacity:1;fill-rule:evenodd;stroke:none;stroke-width:1.761482px"
       d="m -1855.4883,-21.720703 c -69.0969,0 -125.1269,56.036943 -125.1269,125.126953 0,69.08999 56.03,125.12695 125.1269,125.12695 69.09,0 125.127,-56.03696 125.127,-125.12695 0,-69.09001 -56.037,-125.126953 -125.127,-125.126953 z m -85.6797,73.582031 c 1.5345,0 2.9042,0.311449 4.1289,0.923828 1.2248,0.60551 2.4423,1.368986 3.6602,2.291016 9.7776,8.545935 18.2135,15.266979 25.3144,20.152344 7.101,4.885364 13.5965,8.553411 19.4727,10.996093 5.8762,2.442683 11.4144,3.969652 16.6094,4.582032 5.195,0.605509 10.7628,0.916015 16.7285,0.916015 5.9519,0 11.4833,-0.267981 16.5957,-0.804687 5.1193,-0.529819 10.5408,-2.02319 16.2656,-4.458985 5.7386,-2.449552 12.1451,-6.110729 19.2461,-10.996093 7.101,-4.892235 15.6121,-11.682532 25.541,-20.386719 2.5941,-2.146806 5.1881,-3.214844 7.7891,-3.214844 3.0551,0 5.656,1.068038 7.7891,3.214844 2.133,2.133031 3.207,4.733076 3.207,7.78125 v 77.890628 c 0,3.05508 -1.074,5.65017 -3.207,7.7832 -2.1331,2.14681 -4.734,3.21289 -7.7891,3.21289 -3.0551,0 -5.6491,-1.06608 -7.7891,-3.21289 -2.133,-2.13303 -3.207,-4.72812 -3.207,-7.7832 V 86.458984 c -6.8739,5.490874 -13.4783,10.072776 -19.8086,13.740236 -6.3441,3.66746 -12.53,6.60664 -18.5644,8.82226 -6.0276,2.20873 -12.0207,3.77627 -17.9864,4.69141 -5.9519,0.91514 -11.9788,1.37695 -18.082,1.37695 -6.5712,0 -12.8679,-0.46181 -18.9023,-1.37695 -6.0345,-0.91514 -12.0622,-2.48268 -18.1036,-4.69141 -6.0344,-2.21562 -12.1384,-5.1548 -18.3242,-8.82226 -6.1789,-3.66746 -12.7071,-8.249362 -19.5879,-13.740236 v 54.289066 c 0,3.05508 -1.0671,5.65017 -3.207,7.7832 -2.1331,2.14681 -4.734,3.21289 -7.7891,3.21289 -3.055,0 -5.6422,-1.06608 -7.789,-3.21289 -2.1331,-2.13303 -3.1992,-4.72812 -3.1992,-7.7832 V 62.857422 c 0,-3.048174 1.0661,-5.648219 3.1992,-7.78125 2.1468,-2.146806 4.734,-3.214844 7.789,-3.214844 z m 85.9141,74.685552 c 3.9633,0 7.3199,1.36877 10.0723,4.12109 2.7454,2.74543 4.1211,6.10987 4.1211,10.08008 0,3.97022 -1.3757,7.32879 -4.1211,10.07422 -2.7524,2.75231 -6.109,4.1289 -10.0723,4.1289 -3.9771,0 -7.3356,-1.37659 -10.0879,-4.1289 -2.7523,-2.74543 -4.1211,-6.104 -4.1211,-10.07422 0,-3.97021 1.3688,-7.33465 4.1211,-10.08008 2.7523,-2.75232 6.1108,-4.12109 10.0879,-4.12109 z"
       transform="matrix(0.56770379,0,0,0.56770379,1502.5672,195.98731)"
       id="path1025"
       inkscape:connector-curvature="0" />
  </g>
</svg>
