<?xml version="1.0" encoding="UTF-8" standalone="no"?>
<svg
   xmlns:dc="http://purl.org/dc/elements/1.1/"
   xmlns:cc="http://creativecommons.org/ns#"
   xmlns:rdf="http://www.w3.org/1999/02/22-rdf-syntax-ns#"
   xmlns:svg="http://www.w3.org/2000/svg"
   xmlns="http://www.w3.org/2000/svg"
   xmlns:xlink="http://www.w3.org/1999/xlink"
   xmlns:sodipodi="http://sodipodi.sourceforge.net/DTD/sodipodi-0.dtd"
   xmlns:inkscape="http://www.inkscape.org/namespaces/inkscape"
   inkscape:version="1.0rc1 (e8361d971c, 2020-04-28)"
   sodipodi:docname="logo.svg"
   version="1.1"
   width="350"
   height="100"
   id="svg2">
  <sodipodi:namedview
     inkscape:current-layer="svg2"
     inkscape:window-maximized="1"
     inkscape:window-y="30"
     inkscape:window-x="0"
     inkscape:cy="75.873305"
     inkscape:cx="151.75469"
     inkscape:zoom="3.0835661"
     showgrid="false"
     id="namedview175"
     inkscape:window-height="1021"
     inkscape:window-width="1920"
     inkscape:pageshadow="2"
     inkscape:pageopacity="0"
     guidetolerance="10"
     gridtolerance="10"
     objecttolerance="10"
     borderopacity="1"
     bordercolor="#666666"
     pagecolor="#ffffff" />
  <metadata
     id="metadata8">
    <rdf:RDF>
      <cc:Work
         rdf:about="">
        <dc:format>image/svg+xml</dc:format>
        <dc:type
           rdf:resource="http://purl.org/dc/dcmitype/StillImage" />
        <dc:title />
      </cc:Work>
    </rdf:RDF>
  </metadata>
  <defs
     id="defs6">
    <linearGradient
       id="linearGradient3834">
      <stop
         id="stop3836"
         offset="0"
         style="stop-color:#e3dbdb;stop-opacity:1;" />
      <stop
         id="stop3838"
         offset="1"
         style="stop-color:#e3dbdb;stop-opacity:0;" />
    </linearGradient>
    <style
       type="text/css"
       id="style692">.fil0 {fill:url(#id0)}</style>
    <linearGradient
       x1="389"
       x2="2098.5"
       y1="1565.4"
       gradientUnits="userSpaceOnUse"
       y2="72.693001"
       id="id0">
      <stop
         offset="0"
         stop-color="#004AF7"
         id="stop694" />
      <stop
         offset="0"
         stop-color="#7F7C7C"
         id="stop696" />
      <stop
         offset="0"
         stop-color="#004AF7"
         id="stop698" />
      <stop
         offset=".50980"
         stop-color="#F60455"
         id="stop700" />
      <stop
         offset="1"
         stop-color="#FFAE00"
         id="stop702" />
    </linearGradient>
    <style
       id="style1120">.cls-1{fill:#7e1908;}.cls-2{fill:#1d1d1b;}.cls-3{fill:#020304;}</style>
    <clipPath
       id="clipPath418"
       clipPathUnits="userSpaceOnUse">
      <path
         id="path420"
         d="M 0,500 H 500 V 0 H 0 Z" />
    </clipPath>
    <clipPath
       id="clipPath346"
       clipPathUnits="userSpaceOnUse">
      <path
         id="path348"
         d="M 0,500 H 500 V 0 H 0 Z" />
    </clipPath>
    <radialGradient
       gradientUnits="userSpaceOnUse"
       gradientTransform="matrix(1,0,0,0.3526958,0,1522.3112)"
       r="698.91772"
       fy="2351.771"
       fx="952.53796"
       cy="2351.771"
       cx="952.53796"
       id="radialGradient3840"
       xlink:href="#linearGradient3834" />
    <clipPath
       id="clipPath20"
       clipPathUnits="userSpaceOnUse">
      <path
         id="path22"
         d="m 395.251,399.996 c 0,-9.821 7.962,-17.782 17.782,-17.782 v 0 10.553 c 0,9.821 -7.961,17.782 -17.782,17.782 v 0 z" />
    </clipPath>
    <mask
       id="mask38"
       height="1"
       width="1"
       y="0"
       x="0"
       maskUnits="userSpaceOnUse">
      <g
         id="g40">
        <g
           id="g42"
           clip-path="url(#clipPath28)">
          <g
             id="g44">
            <g
               id="g46">
              <path
                 id="path48"
                 style="fill:url(#linearGradient32);stroke:none"
                 d="M -32768,32767 H 32767 V -32768 H -32768 Z" />
            </g>
          </g>
        </g>
      </g>
    </mask>
    <clipPath
       id="clipPath28"
       clipPathUnits="userSpaceOnUse">
      <path
         id="path30"
         d="M -32768,32767 H 32767 V -32768 H -32768 Z" />
    </clipPath>
    <linearGradient
       id="linearGradient32"
       spreadMethod="pad"
       gradientTransform="matrix(24.171011,-32.740715,-32.740715,-24.171011,387.70789,418.64316)"
       gradientUnits="userSpaceOnUse"
       y2="0"
       x2="1"
       y1="0"
       x1="0">
      <stop
         id="stop34"
         offset="0"
         style="stop-opacity:1;stop-color:#ffffff" />
      <stop
         id="stop36"
         offset="1"
         style="stop-opacity:0.97000076;stop-color:#ffffff" />
    </linearGradient>
    <linearGradient
       y2="0"
       x2="1"
       y1="0"
       x1="0"
       spreadMethod="pad"
       gradientTransform="matrix(24.171011,-32.740715,-32.740715,-24.171011,387.70789,418.64316)"
       gradientUnits="userSpaceOnUse"
       id="linearGradient4593"
       xlink:href="#linearGradient54" />
    <linearGradient
       id="linearGradient54"
       spreadMethod="pad"
       gradientTransform="matrix(24.171011,-32.740715,-32.740715,-24.171011,387.70789,418.64316)"
       gradientUnits="userSpaceOnUse"
       y2="0"
       x2="1"
       y1="0"
       x1="0">
      <stop
         id="stop56"
         offset="0"
         style="stop-opacity:1;stop-color:#00d47e" />
      <stop
         id="stop58"
         offset="1"
         style="stop-opacity:1;stop-color:#2adeff" />
    </linearGradient>
    <clipPath
       id="clipPath66"
       clipPathUnits="userSpaceOnUse">
      <path
         id="path68"
         d="m 413.033,431.488 c -9.82,0 -17.782,-7.962 -17.782,-17.782 v 0 h 10.554 c 9.822,0 17.783,7.961 17.783,17.782 v 0 z" />
    </clipPath>
    <mask
       id="mask86"
       height="1"
       width="1"
       y="0"
       x="0"
       maskUnits="userSpaceOnUse">
      <g
         id="g88">
        <g
           id="g90"
           clip-path="url(#clipPath74)">
          <g
             id="g92">
            <g
               id="g94">
              <path
                 id="path96"
                 style="fill:url(#linearGradient78);stroke:none"
                 d="M -32768,32767 H 32767 V -32768 H -32768 Z" />
            </g>
          </g>
        </g>
      </g>
    </mask>
    <clipPath
       id="clipPath74"
       clipPathUnits="userSpaceOnUse">
      <path
         id="path76"
         d="M -32768,32767 H 32767 V -32768 H -32768 Z" />
    </clipPath>
    <linearGradient
       id="linearGradient78"
       spreadMethod="pad"
       gradientTransform="matrix(37.955105,49.573967,49.573967,-37.955105,381.75024,386.45728)"
       gradientUnits="userSpaceOnUse"
       y2="0"
       x2="1"
       y1="0"
       x1="0">
      <stop
         id="stop80"
         offset="0"
         style="stop-opacity:1;stop-color:#ffffff" />
      <stop
         id="stop82"
         offset="0.217791"
         style="stop-opacity:0.99980163;stop-color:#ffffff" />
      <stop
         id="stop84"
         offset="1"
         style="stop-opacity:0.97000076;stop-color:#ffffff" />
    </linearGradient>
    <linearGradient
       y2="0"
       x2="1"
       y1="0"
       x1="0"
       spreadMethod="pad"
       gradientTransform="matrix(37.955105,49.573967,49.573967,-37.955105,381.75024,386.45728)"
       gradientUnits="userSpaceOnUse"
       id="linearGradient4595"
       xlink:href="#linearGradient102" />
    <linearGradient
       id="linearGradient102"
       spreadMethod="pad"
       gradientTransform="matrix(37.955105,49.573967,49.573967,-37.955105,381.75024,386.45728)"
       gradientUnits="userSpaceOnUse"
       y2="0"
       x2="1"
       y1="0"
       x1="0">
      <stop
         id="stop104"
         offset="0"
         style="stop-opacity:1;stop-color:#00bc7e" />
      <stop
         id="stop106"
         offset="0.217791"
         style="stop-opacity:1;stop-color:#00bc7f" />
      <stop
         id="stop108"
         offset="1"
         style="stop-opacity:1;stop-color:#2adeff" />
    </linearGradient>
    <clipPath
       id="clipPath116"
       clipPathUnits="userSpaceOnUse">
      <path
         id="path118"
         d="m 374.314,431.488 c 0,-9.821 7.96,-17.782 17.782,-17.782 v 0 10.554 c 0,9.821 -7.963,17.782 -17.782,17.782 v 0 z" />
    </clipPath>
    <mask
       id="mask134"
       height="1"
       width="1"
       y="0"
       x="0"
       maskUnits="userSpaceOnUse">
      <g
         id="g136">
        <g
           id="g138"
           clip-path="url(#clipPath124)">
          <g
             id="g140">
            <g
               id="g142">
              <path
                 id="path144"
                 style="fill:url(#linearGradient128);stroke:none"
                 d="M -32768,32767 H 32767 V -32768 H -32768 Z" />
            </g>
          </g>
        </g>
      </g>
    </mask>
    <clipPath
       id="clipPath124"
       clipPathUnits="userSpaceOnUse">
      <path
         id="path126"
         d="M -32768,32767 H 32767 V -32768 H -32768 Z" />
    </clipPath>
    <linearGradient
       id="linearGradient128"
       spreadMethod="pad"
       gradientTransform="matrix(-32.176254,61.238689,61.238689,32.176254,395.77249,403.9541)"
       gradientUnits="userSpaceOnUse"
       y2="0"
       x2="1"
       y1="0"
       x1="0">
      <stop
         id="stop130"
         offset="0"
         style="stop-opacity:1;stop-color:#ffffff" />
      <stop
         id="stop132"
         offset="1"
         style="stop-opacity:0.97000076;stop-color:#ffffff" />
    </linearGradient>
    <linearGradient
       y2="0"
       x2="1"
       y1="0"
       x1="0"
       spreadMethod="pad"
       gradientTransform="matrix(-32.176254,61.238689,61.238689,32.176254,395.77249,403.9541)"
       gradientUnits="userSpaceOnUse"
       id="linearGradient4597"
       xlink:href="#linearGradient150" />
    <linearGradient
       id="linearGradient150"
       spreadMethod="pad"
       gradientTransform="matrix(-32.176254,61.238689,61.238689,32.176254,395.77249,403.9541)"
       gradientUnits="userSpaceOnUse"
       y2="0"
       x2="1"
       y1="0"
       x1="0">
      <stop
         id="stop152"
         offset="0"
         style="stop-opacity:1;stop-color:#00bc7e" />
      <stop
         id="stop154"
         offset="1"
         style="stop-opacity:1;stop-color:#2adeff" />
    </linearGradient>
    <clipPath
       id="clipPath162"
       clipPathUnits="userSpaceOnUse">
      <path
         id="path164"
         d="m 374.211,392.767 v -10.471 c 0,-4.92 -3.989,-8.908 -8.907,-8.908 v 0 c -4.919,0 -8.907,3.988 -8.907,8.908 v 0 l -0.015,0.036 c -6.862,-3.617 -2.376,-26.765 14.077,-26.669 v 0 c 11.893,0.069 21.534,9.642 21.534,21.534 v 0 33.353 c -9.821,0 -17.782,-7.961 -17.782,-17.783" />
    </clipPath>
    <mask
       id="mask180"
       height="1"
       width="1"
       y="0"
       x="0"
       maskUnits="userSpaceOnUse">
      <g
         id="g182">
        <g
           id="g184"
           clip-path="url(#clipPath170)">
          <g
             id="g186">
            <g
               id="g188">
              <path
                 id="path190"
                 style="fill:url(#linearGradient174);stroke:none"
                 d="M -32768,32767 H 32767 V -32768 H -32768 Z" />
            </g>
          </g>
        </g>
      </g>
    </mask>
    <clipPath
       id="clipPath170"
       clipPathUnits="userSpaceOnUse">
      <path
         id="path172"
         d="M -32768,32767 H 32767 V -32768 H -32768 Z" />
    </clipPath>
    <linearGradient
       id="linearGradient174"
       spreadMethod="pad"
       gradientTransform="matrix(32.278084,-85.13913,-85.13913,-32.278084,355.14691,437.05109)"
       gradientUnits="userSpaceOnUse"
       y2="0"
       x2="1"
       y1="0"
       x1="0">
      <stop
         id="stop176"
         offset="0"
         style="stop-opacity:1;stop-color:#ffffff" />
      <stop
         id="stop178"
         offset="1"
         style="stop-opacity:0.97000076;stop-color:#ffffff" />
    </linearGradient>
    <linearGradient
       y2="0"
       x2="1"
       y1="0"
       x1="0"
       spreadMethod="pad"
       gradientTransform="matrix(32.278084,-85.13913,-85.13913,-32.278084,355.14691,437.05109)"
       gradientUnits="userSpaceOnUse"
       id="linearGradient4599"
       xlink:href="#linearGradient196" />
    <linearGradient
       id="linearGradient196"
       spreadMethod="pad"
       gradientTransform="matrix(32.278084,-85.13913,-85.13913,-32.278084,355.14691,437.05109)"
       gradientUnits="userSpaceOnUse"
       y2="0"
       x2="1"
       y1="0"
       x1="0">
      <stop
         id="stop198"
         offset="0"
         style="stop-opacity:1;stop-color:#90145a" />
      <stop
         id="stop200"
         offset="1"
         style="stop-opacity:1;stop-color:#2adeff" />
    </linearGradient>
    <clipPath
       id="clipPath208"
       clipPathUnits="userSpaceOnUse">
      <path
         id="path210"
         d="m 374.213,393.017 -0.003,-10.825 c 0.008,-3.941 -3.083,-8.136 -7.821,-8.733 v 0 c 4.817,0.456 25.707,3.761 25.707,26.783 v 0 10.307 c -9.822,0 -17.883,-7.711 -17.883,-17.532 m -8.806,-19.629 c 0.335,0.007 0.662,0.031 0.982,0.071 v 0 c -0.627,-0.06 -0.982,-0.071 -0.982,-0.071" />
    </clipPath>
    <mask
       id="mask226"
       height="1"
       width="1"
       y="0"
       x="0"
       maskUnits="userSpaceOnUse">
      <g
         id="g228">
        <g
           id="g230"
           clip-path="url(#clipPath216)">
          <g
             id="g232">
            <g
               id="g234">
              <path
                 id="path236"
                 style="fill:url(#linearGradient220);stroke:none"
                 d="M -32768,32767 H 32767 V -32768 H -32768 Z" />
            </g>
          </g>
        </g>
      </g>
    </mask>
    <clipPath
       id="clipPath216"
       clipPathUnits="userSpaceOnUse">
      <path
         id="path218"
         d="M -32768,32767 H 32767 V -32768 H -32768 Z" />
    </clipPath>
    <linearGradient
       id="linearGradient220"
       spreadMethod="pad"
       gradientTransform="matrix(24.850779,-47.826115,-47.826115,-24.850779,357.41245,433.03647)"
       gradientUnits="userSpaceOnUse"
       y2="0"
       x2="1"
       y1="0"
       x1="0">
      <stop
         id="stop222"
         offset="0"
         style="stop-opacity:1;stop-color:#ffffff" />
      <stop
         id="stop224"
         offset="1"
         style="stop-opacity:0.97000076;stop-color:#ffffff" />
    </linearGradient>
    <linearGradient
       y2="0"
       x2="1"
       y1="0"
       x1="0"
       spreadMethod="pad"
       gradientTransform="matrix(24.850779,-47.826115,-47.826115,-24.850779,357.41245,433.03647)"
       gradientUnits="userSpaceOnUse"
       id="linearGradient4601"
       xlink:href="#linearGradient242" />
    <linearGradient
       id="linearGradient242"
       spreadMethod="pad"
       gradientTransform="matrix(24.850779,-47.826115,-47.826115,-24.850779,357.41245,433.03647)"
       gradientUnits="userSpaceOnUse"
       y2="0"
       x2="1"
       y1="0"
       x1="0">
      <stop
         id="stop244"
         offset="0"
         style="stop-opacity:1;stop-color:#90145a" />
      <stop
         id="stop246"
         offset="1"
         style="stop-opacity:1;stop-color:#2adeff" />
    </linearGradient>
    <clipPath
       id="clipPath254"
       clipPathUnits="userSpaceOnUse">
      <path
         id="path256"
         d="m 338.718,377.132 c 0.036,-11.867 9.836,-21.507 21.534,-21.469 v 0 c 0.364,10e-4 1.238,-0.001 2.355,-0.003 v 0 c 2.146,-0.003 5.194,-0.006 7.281,0.009 v 0 c 0,0 1.141,-0.002 1.51,0.019 v 0 c 0,0 -0.365,0.03 -1.432,0.188 v 0 c -14.44,2.149 -13.466,26.419 -13.466,26.419 v 0 36.65 c 0,9.822 -7.961,17.784 -17.782,17.784 v 0 z" />
    </clipPath>
    <mask
       id="mask272"
       height="1"
       width="1"
       y="0"
       x="0"
       maskUnits="userSpaceOnUse">
      <g
         id="g274">
        <g
           id="g276"
           clip-path="url(#clipPath262)">
          <g
             id="g278">
            <g
               id="g280">
              <path
                 id="path282"
                 style="fill:url(#linearGradient266);stroke:none"
                 d="M -32768,32767 H 32767 V -32768 H -32768 Z" />
            </g>
          </g>
        </g>
      </g>
    </mask>
    <clipPath
       id="clipPath262"
       clipPathUnits="userSpaceOnUse">
      <path
         id="path264"
         d="M -32768,32767 H 32767 V -32768 H -32768 Z" />
    </clipPath>
    <linearGradient
       id="linearGradient266"
       spreadMethod="pad"
       gradientTransform="matrix(47.492104,-121.05804,-121.05804,-47.492104,332.90286,435.22607)"
       gradientUnits="userSpaceOnUse"
       y2="0"
       x2="1"
       y1="0"
       x1="0">
      <stop
         id="stop268"
         offset="0"
         style="stop-opacity:1;stop-color:#ffffff" />
      <stop
         id="stop270"
         offset="1"
         style="stop-opacity:0.97000076;stop-color:#ffffff" />
    </linearGradient>
    <linearGradient
       y2="0"
       x2="1"
       y1="0"
       x1="0"
       spreadMethod="pad"
       gradientTransform="matrix(47.492104,-121.05804,-121.05804,-47.492104,332.90286,435.22607)"
       gradientUnits="userSpaceOnUse"
       id="linearGradient4603"
       xlink:href="#linearGradient288" />
    <linearGradient
       id="linearGradient288"
       spreadMethod="pad"
       gradientTransform="matrix(47.492104,-121.05804,-121.05804,-47.492104,332.90286,435.22607)"
       gradientUnits="userSpaceOnUse"
       y2="0"
       x2="1"
       y1="0"
       x1="0">
      <stop
         id="stop290"
         offset="0"
         style="stop-opacity:1;stop-color:#90145a" />
      <stop
         id="stop292"
         offset="1"
         style="stop-opacity:1;stop-color:#2adeff" />
    </linearGradient>
    <clipPath
       clipPathUnits="userSpaceOnUse"
       id="clipPath964">
      <path
         d="M 0,500 H 500 V 0 H 0 Z"
         id="path962" />
    </clipPath>
    <clipPath
       clipPathUnits="userSpaceOnUse"
       id="clipPath1186">
      <path
         d="M 0,500 H 500 V 0 H 0 Z"
         id="path1184" />
    </clipPath>
    <clipPath
       clipPathUnits="userSpaceOnUse"
       id="clipPath1452">
      <path
         d="M 0,500 H 500 V 0 H 0 Z"
         id="path1450" />
    </clipPath>
    <clipPath
       clipPathUnits="userSpaceOnUse"
       id="clipPath1756">
      <path
         d="M 0,500 H 500 V 0 H 0 Z"
         id="path1754" />
    </clipPath>
    <clipPath
       clipPathUnits="userSpaceOnUse"
       id="clipPath2014">
      <path
         d="M 0,500 H 500 V 0 H 0 Z"
         id="path2012" />
    </clipPath>
    <clipPath
       clipPathUnits="userSpaceOnUse"
       id="clipPath2066">
      <path
         d="M 0,500 H 500 V 0 H 0 Z"
         id="path2064" />
    </clipPath>
    <style
       type="text/css"
       id="style1000">
   <![CDATA[
    .fil4 {fill:#2B2A29}
    .fil3 {fill:#A52229}
    .fil0 {fill:white}
    .fil2 {fill:#2B2A29;fill-rule:nonzero}
    .fil1 {fill:#A52229;fill-rule:nonzero}
   ]]>
  </style>
  </defs>
  <g
     transform="matrix(0.01229137,0,0,0.01229137,88.458157,25.643008)"
     id="g1033"
     style="clip-rule:evenodd;fill-rule:evenodd;image-rendering:optimizeQuality;shape-rendering:geometricPrecision;text-rendering:geometricPrecision">
    <g
       id="Warstwa_x0020_2">
  <metadata
   id="CorelCorpID_0Corel-Layer" />

  <path
   class="fil0"
   d="m 7006,361 c -740,0 -1340,600 -1340,1340 0,740 600,1340 1340,1340 740,0 1340,-600 1340,-1340 C 8346,961 7746,361 7006,361 Z m -800,1740 c 0,33 -11,60 -34,83 -23,23 -51,34 -83,34 -33,0 -60,-11 -83,-34 -23,-23 -34,-51 -34,-83 v -834 c 0,-33 12,-61 34,-83 23,-23 51,-34 83,-34 16,0 31,3 44,10 13,7 26,15 39,24 105,92 195,164 271,216 76,52 146,92 209,118 63,26 122,43 178,49 56,7 115,10 179,10 64,0 123,-3 178,-9 55,-6 113,-22 174,-48 61,-26 130,-65 206,-118 76,-52 167,-125 273,-218 28,-23 56,-34 83,-34 33,0 60,11 83,34 23,23 34,51 34,83 v 834 c 0,33 -12,60 -34,83 -23,23 -51,34 -83,34 -33,0 -60,-11 -83,-34 -23,-23 -34,-51 -34,-83 v -581 c -74,59 -144,108 -212,147 -68,39 -134,71 -199,94 -65,24 -129,40 -193,50 -64,10 -128,15 -194,15 -70,0 -138,-5 -202,-15 -65,-10 -129,-27 -194,-50 -65,-24 -130,-55 -196,-94 -66,-39 -136,-88 -210,-147 z m 650,0 c 0,-42 15,-78 44,-108 29,-29 65,-44 108,-44 42,0 78,15 108,44 29,29 44,65 44,108 0,43 -15,79 -44,108 -30,29 -65,44 -108,44 -43,0 -79,-15 -108,-44 -29,-29 -44,-65 -44,-108 z M 7006,158 c -852,0 -1543,691 -1543,1543 0,852 691,1543 1543,1543 852,0 1543,-691 1543,-1543 C 8549,849 7858,158 7006,158 Z"
   id="path1005" />

  <path
   class="fil1"
   d="m 518,4783 c 0,-24 8,-45 25,-62 17,-17 38,-25 62,-25 24,0 45,9 62,25 17,17 25,38 25,62 0,24 -8,45 -25,62 -17,17 -38,25 -62,25 -24,0 -45,-8 -62,-25 -17,-17 -25,-38 -25,-62 z m -374,0 c 0,19 -7,35 -20,48 -13,13 -29,20 -48,20 -19,0 -35,-7 -48,-20 -13,-13 -20,-29 -20,-48 v -480 c 0,-19 6,-35 20,-48 13,-13 29,-20 48,-20 9,0 18,2 25,6 7,4 15,8 23,14 60,53 112,94 156,124 44,30 84,53 120,68 36,15 70,24 102,28 32,4 66,6 103,6 37,0 71,-2 102,-5 31,-3 65,-12 100,-27 35,-15 75,-38 119,-68 44,-30 96,-72 157,-126 16,-13 32,-20 48,-20 19,0 35,7 48,20 13,13 20,29 20,48 v 480 c 0,19 -7,35 -20,48 -13,13 -29,20 -48,20 -19,0 -35,-7 -48,-20 -13,-13 -20,-29 -20,-48 v -334 c -42,34 -83,62 -122,85 -39,23 -77,41 -114,54 -37,14 -74,23 -111,29 -37,6 -74,8 -111,8 -40,0 -79,-3 -116,-8 -37,-6 -74,-15 -111,-29 -37,-14 -75,-32 -113,-54 -38,-23 -78,-51 -121,-85 z"
   id="path1007" />

  <path
   class="fil2"
   d="m 1855,4484 c 19,0 36,7 49,20 14,14 20,30 20,50 0,19 -7,36 -20,49 -14,14 -30,20 -49,20 h -437 c -18,-2 -33,-9 -45,-23 -13,-13 -19,-29 -19,-47 0,-19 7,-36 20,-50 14,-14 30,-20 50,-20 h 431 z m 355,-108 v 108 h 808 c 15,0 27,-5 39,-15 11,-10 17,-23 17,-39 0,-15 -6,-27 -17,-38 -11,-11 -24,-16 -39,-16 z m 802,-140 c 27,0 53,5 76,15 24,10 45,24 63,42 18,17 32,38 42,61 10,23 15,49 15,76 0,27 -5,52 -15,76 -10,23 -24,44 -42,61 -18,17 -39,31 -63,41 -24,10 -49,15 -76,15 h -802 v 178 c 0,19 -7,36 -21,49 -14,14 -30,20 -49,20 -19,0 -36,-7 -50,-20 -14,-14 -20,-30 -20,-49 v -495 c 0,-19 7,-36 20,-49 14,-14 30,-20 50,-20 h 872 z m 1278,387 c 26,17 53,34 80,53 27,19 55,40 83,62 11,8 20,17 28,27 8,10 12,22 12,36 0,19 -7,36 -20,49 -14,14 -30,20 -50,20 -17,0 -33,-7 -49,-20 -40,-29 -81,-57 -122,-84 -42,-27 -85,-51 -130,-73 -45,-21 -92,-38 -141,-51 -49,-13 -99,-19 -151,-19 h -290 c -13,2 -23,8 -32,18 -9,10 -13,22 -13,36 v 124 c 0,19 -7,36 -21,49 -14,14 -30,20 -49,20 -19,0 -36,-7 -50,-20 -14,-14 -20,-30 -20,-49 v -140 c 0,-24 5,-47 14,-69 9,-22 22,-41 37,-57 15,-16 34,-29 55,-38 21,-9 45,-14 70,-14 h 772 c 15,0 27,-5 39,-15 11,-10 17,-23 17,-39 0,-15 -6,-27 -17,-38 -11,-11 -24,-16 -39,-16 h -878 c -19,0 -36,-7 -50,-20 -14,-14 -20,-30 -20,-49 0,-19 7,-36 20,-49 14,-14 30,-20 50,-20 h 872 c 27,0 53,5 76,15 24,10 45,24 63,42 18,17 32,38 42,61 10,23 15,49 15,76 0,27 -5,52 -15,76 -10,23 -24,44 -42,61 -18,17 -39,31 -63,41 -24,10 -49,15 -76,15 h -6 z m 1235,108 c 33,0 60,-6 82,-18 21,-12 38,-27 50,-44 12,-17 20,-37 25,-58 4,-21 7,-40 7,-57 0,-17 -2,-37 -7,-58 -4,-21 -13,-40 -25,-58 -12,-17 -29,-32 -50,-44 -21,-12 -49,-18 -82,-18 h -588 c -34,0 -61,6 -82,18 -21,12 -37,27 -49,44 -12,17 -20,37 -25,58 -4,21 -7,40 -7,58 0,17 2,37 7,57 4,21 13,40 25,58 12,17 29,32 49,44 21,12 48,18 82,18 z m 299,-178 c 0,37 -6,74 -18,111 -12,37 -30,71 -53,102 -23,31 -51,56 -84,75 -33,19 -70,29 -112,29 h -664 c -40,-2 -75,-13 -106,-33 -31,-20 -57,-45 -79,-75 -22,-30 -39,-64 -50,-100 -12,-37 -18,-73 -18,-109 0,-37 6,-74 18,-111 12,-37 30,-71 53,-102 23,-31 51,-56 84,-75 33,-19 70,-29 112,-29 h 664 c 40,2 75,13 106,33 31,20 57,45 79,75 22,30 39,64 50,100 12,37 18,73 18,109 z m 1034,178 c 33,0 60,-6 82,-18 21,-12 38,-27 50,-44 12,-17 20,-37 25,-58 4,-21 7,-40 7,-57 0,-17 -2,-37 -7,-58 -4,-21 -13,-40 -25,-58 -12,-17 -29,-32 -50,-44 -21,-12 -49,-18 -82,-18 h -818 c -19,0 -36,-7 -50,-20 -14,-14 -20,-30 -20,-49 0,-19 7,-36 20,-49 14,-14 30,-20 50,-20 h 849 c 42,0 79,10 112,29 33,19 61,44 84,75 23,31 41,64 53,102 12,37 18,74 18,111 0,36 -6,72 -18,109 -12,37 -28,70 -50,100 -22,30 -48,55 -79,75 -31,20 -66,31 -106,33 h -863 c -19,0 -36,-7 -50,-20 -14,-14 -20,-30 -20,-49 v -247 c 0,-19 7,-36 20,-50 14,-14 30,-20 50,-20 19,0 36,7 49,20 14,14 20,30 20,50 v 178 h 748 z m 584,-178 c 0,17 2,37 7,57 4,21 13,40 25,58 12,17 29,32 49,44 21,12 48,18 82,18 h 579 c 33,0 60,-6 82,-18 21,-12 38,-27 50,-44 12,-17 20,-37 25,-58 4,-21 7,-40 7,-57 v -246 c 0,-19 7,-36 20,-49 14,-14 30,-20 49,-20 19,0 36,7 49,20 14,14 20,30 20,49 v 246 c 0,37 -6,74 -18,111 -12,37 -30,71 -53,102 -23,31 -51,56 -84,75 -33,19 -70,29 -112,29 h -664 c -40,-2 -75,-13 -106,-33 -31,-20 -58,-45 -79,-75 -22,-30 -39,-64 -50,-100 -12,-37 -18,-73 -18,-109 v -246 c 0,-19 7,-36 20,-49 14,-14 30,-20 49,-20 19,0 36,7 50,20 14,14 20,30 20,49 v 246 z m 1191,0 c 0,-37 6,-74 18,-111 12,-37 30,-71 53,-102 23,-31 51,-56 84,-75 33,-19 70,-29 112,-29 h 849 c 19,0 36,7 49,20 14,14 20,30 20,49 0,19 -7,36 -20,49 -14,14 -30,20 -49,20 h -818 c -34,0 -61,6 -82,18 -21,12 -37,27 -49,44 -12,17 -20,37 -25,58 -4,21 -7,40 -7,58 0,17 2,37 7,57 4,21 13,40 25,58 12,17 29,32 49,44 21,12 48,18 82,18 h 818 c 19,0 36,7 49,20 14,14 20,30 20,49 0,19 -7,36 -20,49 -14,14 -30,20 -49,20 h -863 c -40,0 -75,-10 -106,-29 -31,-19 -58,-44 -79,-75 -22,-31 -39,-65 -50,-103 -12,-38 -17,-75 -17,-111 z m 2404,-317 c 19,0 36,7 49,20 14,14 20,30 20,49 0,19 -7,36 -20,49 -14,14 -30,20 -49,20 h -431 v 425 c 0,19 -7,36 -20,49 -14,14 -30,20 -50,20 -19,0 -36,-7 -49,-20 -14,-14 -20,-30 -20,-49 v -425 h -437 c -17,-2 -33,-9 -45,-23 -13,-13 -19,-29 -19,-47 0,-19 7,-36 20,-49 14,-14 30,-20 49,-20 h 1002 z m 355,565 c 0,19 -7,36 -20,49 -14,14 -30,20 -50,20 -19,0 -36,-7 -49,-20 -14,-14 -20,-30 -20,-49 v -495 c 0,-19 7,-36 20,-49 14,-14 30,-20 49,-20 19,0 36,7 50,20 14,14 20,30 20,49 z m 1032,-70 c 33,0 60,-6 82,-18 21,-12 38,-27 50,-44 12,-17 20,-37 25,-58 4,-21 7,-40 7,-57 0,-17 -2,-37 -7,-58 -4,-21 -13,-40 -25,-58 -12,-17 -29,-32 -50,-44 -21,-12 -48,-18 -82,-18 h -588 c -34,0 -61,6 -82,18 -21,12 -37,27 -49,44 -12,17 -20,37 -25,58 -4,21 -7,40 -7,58 0,17 2,37 7,57 4,21 13,40 25,58 12,17 29,32 49,44 21,12 48,18 82,18 z m 298,-178 c 0,37 -6,74 -18,111 -12,37 -30,71 -53,102 -23,31 -51,56 -84,75 -33,19 -70,29 -112,29 h -664 c -40,-2 -75,-13 -106,-33 -31,-20 -57,-45 -79,-75 -22,-30 -39,-64 -50,-100 -12,-37 -18,-73 -18,-109 0,-37 6,-74 18,-111 12,-37 30,-71 53,-102 23,-31 51,-56 84,-75 33,-19 70,-29 112,-29 h 664 c 40,2 75,13 106,33 31,20 58,45 79,75 22,30 39,64 50,100 12,37 18,73 18,109 z m 1137,-248 c 0,-19 7,-36 20,-49 14,-14 30,-20 50,-20 19,0 36,7 49,20 14,14 20,30 20,49 v 424 c 0,40 -13,73 -40,100 -27,27 -60,41 -100,41 -14,0 -27,-2 -40,-6 -13,-4 -25,-9 -36,-16 l -667,-408 c -18,-11 -34,-19 -46,-25 -12,-6 -22,-9 -30,-9 -15,0 -24,9 -28,28 -4,18 -6,45 -6,80 v 287 c 0,19 -7,36 -20,49 -14,14 -30,20 -50,20 -19,0 -36,-7 -49,-20 -14,-14 -20,-30 -20,-49 v -424 c 0,-40 13,-73 40,-100 27,-27 60,-41 100,-41 14,0 27,2 40,6 13,4 25,9 36,16 l 667,408 c 18,11 34,19 46,25 12,6 22,9 30,9 15,0 24,-9 28,-28 4,-18 6,-45 6,-80 z"
   id="path1009" />

  <path
   class="fil2"
   d="m 185,5400 h 58 l 185,485 H 330 L 214,5554 98,5885 H 0 Z m -96,319 h 255 v 88 H 89 Z m 1170,-105 v 95 c 0,36 -7,68 -22,95 -15,27 -35,49 -62,64 -27,15 -58,23 -93,23 -35,0 -66,-7 -93,-21 -27,-14 -48,-34 -63,-60 -15,-26 -22,-56 -22,-90 v -143 c 0,-36 7,-68 22,-95 15,-27 35,-48 62,-63 27,-15 58,-23 93,-23 29,0 56,6 80,18 24,12 45,29 61,50 16,22 27,47 33,76 v 0 h -99 v 0 c -3,-10 -9,-19 -17,-27 -8,-7 -17,-13 -27,-17 -10,-4 -21,-6 -32,-6 -16,0 -30,4 -43,11 -12,7 -22,17 -29,30 -7,13 -10,28 -10,45 v 143 c 0,15 3,28 10,40 7,12 17,20 29,27 13,6 27,9 44,9 16,0 31,-3 43,-10 12,-7 22,-17 28,-30 7,-13 10,-28 10,-46 v -8 h -73 v -88 h 168 z m 522,-214 h 91 v 485 h -91 z m 33,397 h 292 v 88 h -292 z m 0,-197 h 255 v 88 h -255 z m 0,-200 h 292 v 88 h -292 z m 801,0 h 112 l 180,371 -8,9 v -380 h 87 v 484 h -112 l -180,-366 8,-9 v 374 h -87 v -484 z m 1069,490 c -37,0 -68,-7 -95,-21 -26,-14 -46,-35 -60,-62 -14,-27 -21,-60 -21,-98 v -133 c 0,-38 7,-71 21,-98 14,-27 34,-48 60,-62 26,-14 58,-21 95,-21 30,0 58,7 82,20 24,13 44,32 59,57 16,25 27,55 32,90 v 0 h -95 v 0 c -3,-16 -9,-30 -16,-41 -7,-11 -16,-20 -27,-26 -11,-6 -22,-9 -35,-9 -17,0 -32,4 -44,10 -12,7 -21,17 -27,31 -6,13 -9,30 -9,48 v 133 c 0,19 3,35 9,48 6,13 16,23 27,30 12,7 27,10 44,10 13,0 25,-3 36,-9 11,-6 20,-15 27,-26 7,-11 13,-25 16,-41 v 0 h 95 v 0 c -6,35 -17,65 -33,91 -16,25 -35,44 -59,57 -24,13 -51,20 -81,20 z m 766,0 c -30,0 -56,-6 -80,-17 -23,-12 -41,-28 -54,-49 l 75,-54 c 8,10 18,18 29,24 11,6 23,8 35,8 18,0 31,-6 41,-19 10,-12 14,-30 14,-52 v -330 h 95 v 331 c 0,34 -6,62 -18,86 -12,24 -30,42 -53,54 -23,12 -51,19 -84,19 z m 826,-490 h 58 l 185,485 h -98 l -116,-331 -116,331 h -98 z m -96,319 h 255 v 88 h -255 z m 1404,-117 h 169 c 9,0 18,-2 25,-7 7,-5 13,-11 16,-20 4,-9 6,-19 6,-30 v 0 c 0,-11 -2,-21 -6,-30 -4,-9 -9,-15 -16,-20 -7,-5 -16,-7 -25,-7 h -169 v -88 h 176 c 27,0 50,6 70,18 20,12 36,29 47,51 11,22 17,47 17,76 v 0 c 0,29 -6,54 -17,76 -11,22 -27,39 -47,51 -20,12 -44,18 -70,18 h -176 z m -36,-202 h 91 v 485 h -91 z m 138,275 98,-15 131,225 h -111 z m 732,-275 h 91 v 485 h -91 z m 33,397 h 292 v 88 h -292 z m 0,-197 h 255 v 88 h -255 z m 0,-200 h 292 v 88 h -292 z m 855,295 194,-295 h 115 l -298,414 -12,-119 z m -55,-295 h 91 v 485 h -91 z m 136,239 79,-50 170,295 h -108 z m 728,-239 h 91 v 485 h -91 z m 41,397 h 284 v 88 h -284 z m 915,-397 h 58 l 185,485 h -98 l -116,-331 -116,331 h -98 z m -96,319 h 255 v 88 h -255 z m 1130,-319 h 120 v 485 h -83 v -376 l 3,21 -93,301 h -81 l -93,-294 3,-28 v 376 h -83 v -485 h 120 l 92,327 92,-327 z m 820,490 c -35,0 -66,-7 -93,-22 -27,-15 -48,-36 -62,-63 -15,-27 -22,-58 -22,-94 v -137 c 0,-36 7,-67 22,-94 15,-27 35,-48 62,-63 27,-15 58,-22 93,-22 35,0 66,7 93,22 27,15 48,36 62,63 15,27 22,58 22,94 v 137 c 0,35 -7,67 -22,94 -15,27 -35,48 -62,63 -27,15 -58,22 -93,22 z m 0,-91 c 16,0 31,-4 43,-10 13,-7 22,-17 29,-30 7,-13 10,-28 10,-45 v -142 c 0,-17 -3,-32 -10,-45 -7,-13 -16,-23 -29,-30 -12,-7 -27,-10 -43,-10 -16,0 -31,4 -43,10 -13,7 -22,17 -29,30 -7,13 -10,28 -10,45 v 142 c 0,17 3,32 10,45 7,13 16,23 29,30 12,7 27,10 43,10 z m 898,-398 h 73 l 93,323 62,-323 h 94 l -112,485 h -86 l -86,-339 -90,339 h -86 l -112,-485 h 94 l 62,323 93,-323 z m 943,0 h 58 l 185,485 h -98 l -116,-331 -116,331 h -98 z m -96,319 h 255 v 88 h -255 z"
   id="path1011" />

  <path
   class="fil3"
   d="m 7006,361 c -740,0 -1340,600 -1340,1340 0,740 600,1340 1340,1340 740,0 1340,-600 1340,-1340 C 8346,961 7746,361 7006,361 Z m -800,1740 c 0,33 -11,60 -34,83 -23,23 -51,34 -83,34 -33,0 -60,-11 -83,-34 -23,-23 -34,-51 -34,-83 v -834 c 0,-33 11,-61 34,-83 23,-23 51,-34 83,-34 16,0 31,3 44,10 13,7 26,15 39,25 105,92 195,164 271,216 76,52 146,92 209,118 63,26 122,43 178,49 56,6 115,10 179,10 64,0 123,-3 178,-9 55,-6 113,-22 174,-48 61,-26 130,-65 206,-118 76,-52 167,-125 273,-218 28,-23 56,-34 83,-34 33,0 60,11 83,34 23,23 34,51 34,83 v 834 c 0,33 -12,60 -34,83 -23,23 -51,34 -83,34 -33,0 -61,-11 -83,-34 -23,-23 -34,-51 -34,-83 v -581 c -74,59 -144,108 -212,147 -68,39 -134,71 -199,94 -65,24 -129,40 -193,50 -64,10 -128,15 -194,15 -70,0 -138,-5 -202,-15 -65,-10 -129,-27 -194,-50 -65,-24 -130,-55 -196,-94 -66,-39 -136,-88 -210,-147 v 581 z m 650,0 c 0,-43 15,-79 44,-108 29,-29 65,-44 108,-44 42,0 78,15 108,44 29,29 44,65 44,108 0,43 -15,78 -44,108 -30,29 -65,44 -108,44 -43,0 -79,-15 -108,-44 -29,-29 -44,-65 -44,-108 z"
   id="path1013" />

  <path
   class="fil4"
   d="m 7006,0 c 939,0 1701,761 1701,1701 0,939 -761,1701 -1701,1701 C 6067,3402 5305,2641 5305,1701 5305,762 6066,0 7006,0 Z m 0,157 c -852,0 -1543,691 -1543,1543 0,852 691,1543 1543,1543 852,0 1543,-691 1543,-1543 C 8549,848 7858,157 7006,157 Z"
   id="path1015" />

 </g>
  </g>
</svg>
